<?xml version="1.0" encoding="UTF-8" standalone="no"?>
<!-- Generator: Adobe Illustrator 16.0.0, SVG Export Plug-In . SVG Version: 6.00 Build 0)  -->

<svg
   version="1.1"
   id="Capa_1"
   x="0px"
   y="0px"
   width="408.483px"
   height="408.483px"
   viewBox="0 0 408.483 408.483"
   style="enable-background:new 0 0 408.483 408.483;"
   xml:space="preserve"
   sodipodi:docname="bin.svg"
   inkscape:version="1.1.2 (0a00cf5339, 2022-02-04, custom)"
   inkscape:export-xdpi="15.041018"
   inkscape:export-ydpi="15.041018"
   xmlns:inkscape="http://www.inkscape.org/namespaces/inkscape"
   xmlns:sodipodi="http://sodipodi.sourceforge.net/DTD/sodipodi-0.dtd"
   xmlns="http://www.w3.org/2000/svg"
   xmlns:svg="http://www.w3.org/2000/svg"><defs
   id="defs43" /><sodipodi:namedview
   id="namedview41"
   pagecolor="#ffffff"
   bordercolor="#666666"
   borderopacity="1.0"
   inkscape:pageshadow="2"
   inkscape:pageopacity="0.0"
   inkscape:pagecheckerboard="0"
   showgrid="false"
   inkscape:zoom="0.71728811"
   inkscape:cx="55.765597"
   inkscape:cy="225.85067"
   inkscape:window-width="1366"
   inkscape:window-height="745"
   inkscape:window-x="-8"
   inkscape:window-y="-8"
   inkscape:window-maximized="1"
   inkscape:current-layer="Capa_1" />
<g
   id="g8"
   style="display:inline;opacity:1">
	<g
   id="g6">
		<path
   d="m 87.748,388.784 c 0.461,11.01 9.521,19.699 20.539,19.699 h 191.911 c 11.018,0 20.078,-8.689 20.539,-19.699 L 334.442,99.468 H 74.043 Z"
   id="path2"
   style="display:inline"
   sodipodi:nodetypes="csscccc" />
		<path
   d="M 343.567,21.043 H 255.032 V 4.305 C 255.032,1.928 253.105,0 250.727,0 h -92.971 c -2.377,0 -4.304,1.928 -4.304,4.305 V 21.042 H 64.916 c -7.125,0 -12.9,5.776 -12.9,12.901 V 74.47 H 356.467 V 33.944 c 0,-7.125 -5.775,-12.901 -12.9,-12.901 z"
   id="path4" />
	</g>
</g>















<g
   id="g5599"
   transform="matrix(4.7579171,0,0,4.7579171,-112.22889,97.80962)"
   style="display:inline;opacity:1"><path
     id="path5360"
     style="fill:#780000;fill-opacity:1"
     d="m 61.000468,32.475228 v 24.168 h 11.258 v -24.168 h 12.064 L 66.629,10.113227 48.937468,32.475228 Z m 1.239,-26.2740006 c 1.043,-1.317 2.707532,-2.088 4.389532,-2.088 1.682,0 3.714968,1.4295 4.236468,2.088 0.5215,0.6585 17.695,22.3610006 17.695,22.3610006 1.309,1.654 1.555,3.91 0.637,5.809 -0.918,1.899 -2.842,3.104 -4.951,3.104 h -6.564 v 18.668 c 0,3.037 -2.463,5.5 -5.5,5.5 h -11.259 c -3.037,0 -5.5,-2.463 -5.5,-5.5 l 0.151,-18.668 h -6.561 c -1.264273,0 -4.211589,-0.728606 -5.226,-3.104 -1.014411,-2.375394 -0.345819,-4.319078 0.637,-5.809"
     sodipodi:nodetypes="ccccccccczzcssccssccssc" /></g></svg>
