<?xml version="1.0" encoding="UTF-8" standalone="no"?>
<!-- Generator: Adobe Illustrator 16.0.0, SVG Export Plug-In . SVG Version: 6.00 Build 0)  -->

<svg
   version="1.1"
   id="Capa_1"
   x="0px"
   y="0px"
   width="90.766px"
   height="90.766px"
   viewBox="0 0 90.766 90.766"
   style="enable-background:new 0 0 90.766 90.766;"
   xml:space="preserve"
   sodipodi:docname="buy.svg"
   inkscape:version="1.1.1 (3bf5ae0d25, 2021-09-20)"
   inkscape:export-xdpi="67.690544"
   inkscape:export-ydpi="67.690544"
   xmlns:inkscape="http://www.inkscape.org/namespaces/inkscape"
   xmlns:sodipodi="http://sodipodi.sourceforge.net/DTD/sodipodi-0.dtd"
   xmlns="http://www.w3.org/2000/svg"
   xmlns:svg="http://www.w3.org/2000/svg"><defs
   id="defs39"><linearGradient
   id="linearGradient2197"
   inkscape:swatch="solid"><stop
     style="stop-color:#000000;stop-opacity:1;"
     offset="0"
     id="stop2195" /></linearGradient>

</defs><sodipodi:namedview
   id="namedview37"
   pagecolor="#ffffff"
   bordercolor="#666666"
   borderopacity="1.0"
   inkscape:pageshadow="2"
   inkscape:pageopacity="0.0"
   inkscape:pagecheckerboard="0"
   showgrid="false"
   inkscape:zoom="3.0848556"
   inkscape:cx="35.982235"
   inkscape:cy="17.018625"
   inkscape:window-width="1366"
   inkscape:window-height="745"
   inkscape:window-x="-8"
   inkscape:window-y="-8"
   inkscape:window-maximized="1"
   inkscape:current-layer="Capa_1" />
















<g
   id="g830"
   transform="matrix(1.0846516,0,0,1.0846516,-3.7419481,-8.8321513)"><path
     d="M 47,22 H 19.736657 l -1.395,-6.957969 -13.928,-2.324 -1.246,7.469 8.785,1.463 9.32,44.965 -4.092,13.01 h 5.658 c -0.32,0.773 -0.5,1.627 -0.5,2.523 0,3.486 2.656,6.312 5.934,6.312 3.278,0 5.932,-2.826 5.932,-6.312 0,-0.896 -0.18,-1.75 -0.496,-2.523 h 31.289 c -0.318,0.773 -0.496,1.627 -0.496,2.523 0,3.486 2.654,6.312 5.932,6.312 3.275,0 5.932,-2.826 5.932,-6.312 0,-0.896 -0.18,-1.75 -0.498,-2.523 h 5.017 v -7.57 h -53.385 l 0.766,-2.43 L 61,57 44.840077,42.278359"
     id="path14043"
     sodipodi:nodetypes="cccccccccsssccsssccccccc"
     style="display:inline" /><g
     id="g883"
     transform="translate(19.015664,-10.859503)"
     style="display:inline"><path
       id="path980-3"
       style="display:inline;opacity:1;fill:#000000;fill-opacity:1;fill-rule:evenodd;stroke-width:1.76727;paint-order:stroke fill markers"
       d="M 62.887871,45.382999 A 17.504871,17.504871 0 0 1 45.382999,62.887871 17.504871,17.504871 0 0 1 27.878128,45.382999 17.504871,17.504871 0 0 1 45.382999,27.878128 17.504871,17.504871 0 0 1 62.887871,45.382999 Z m 5.510793,0 A 23.015665,23.015665 0 0 1 45.382999,68.398664 23.015665,23.015665 0 0 1 22.367334,45.382999 23.015665,23.015665 0 0 1 45.382999,22.367334 23.015665,23.015665 0 0 1 68.398664,45.382999 Z" /><polygon
       points="404.323,265.446 357.707,265.446 357.707,218.83 327.707,218.83 327.707,265.446 281.091,265.446 281.091,295.446 327.707,295.446 327.707,342.062 357.707,342.062 357.707,295.446 404.323,295.446 "
       id="polygon6"
       transform="matrix(0.22574956,0,0,0.21300805,-31.982955,-14.354256)"
       style="display:inline;fill:#007800;fill-opacity:1" /></g></g></svg>
