<?xml version="1.0" encoding="UTF-8" standalone="no"?>
<!-- Generator: Adobe Illustrator 18.0.0, SVG Export Plug-In . SVG Version: 6.00 Build 0)  -->

<svg
   version="1.1"
   id="Capa_1"
   x="0px"
   y="0px"
   viewBox="0 0 54.981 54.981"
   style="enable-background:new 0 0 54.981 54.981;"
   xml:space="preserve"
   sodipodi:docname="change-price.svg"
   inkscape:export-filename="C:\Users\zwero\Downloads\change-price.png"
   inkscape:export-xdpi="111.7477"
   inkscape:export-ydpi="111.7477"
   inkscape:version="1.1.1 (3bf5ae0d25, 2021-09-20)"
   xmlns:inkscape="http://www.inkscape.org/namespaces/inkscape"
   xmlns:sodipodi="http://sodipodi.sourceforge.net/DTD/sodipodi-0.dtd"
   xmlns="http://www.w3.org/2000/svg"
   xmlns:svg="http://www.w3.org/2000/svg"><defs
   id="defs61" /><sodipodi:namedview
   id="namedview59"
   pagecolor="#ffffff"
   bordercolor="#666666"
   borderopacity="1.0"
   inkscape:pageshadow="2"
   inkscape:pageopacity="0.0"
   inkscape:pagecheckerboard="0"
   showgrid="false"
   inkscape:zoom="5.0926685"
   inkscape:cx="1.5708857"
   inkscape:cy="32.497697"
   inkscape:window-width="1366"
   inkscape:window-height="745"
   inkscape:window-x="-8"
   inkscape:window-y="-8"
   inkscape:window-maximized="1"
   inkscape:current-layer="g56" />
<g
   id="g26"
   transform="matrix(1.0109091,0,0,1,-0.00535638,0)"
   style="display:inline"
   inkscape:label="g26">
	<g
   id="g8">
		<path
   style="fill:#e7d4b1"
   d="M 43.962,0 H 30.785 L 6.338,24.367 30.072,48.152 54.49,23.814 v -13.31 z m -1.456,14.87 c -1.621,0 -2.935,-1.314 -2.935,-2.935 0,-1.621 1.314,-2.935 2.935,-2.935 1.621,0 2.935,1.314 2.935,2.935 0,1.621 -1.314,2.935 -2.935,2.935 z"
   id="path2" />
		<polygon
   style="display:inline;fill:#d3c2a4"
   points="0.491,30.215 24.225,54 30.127,48.113 6.367,24.354 "
   id="polygon4" />
		<path
   style="display:inline;fill:#cbb292"
   d="m 42.506,9 c 1.621,0 2.935,1.314 2.935,2.935 0,1.621 -1.314,2.935 -2.935,2.935 -1.621,0 -2.935,-1.314 -2.935,-2.935 C 39.571,10.314 40.885,9 42.506,9 m 0,-4 c -3.824,0 -6.935,3.111 -6.935,6.935 0,3.824 3.111,6.935 6.935,6.935 3.824,0 6.935,-3.111 6.935,-6.935 C 49.441,8.111 46.33,5 42.506,5 Z"
   id="path6" />
	</g>
	<g
   id="g24">
		<polygon
   style="fill:#eddcc7"
   points="29.977,48.139 27.327,45.489 27.319,45.496 25.331,52.786 "
   id="polygon10" />
		<path
   style="fill:#d75a4a"
   d="m 46.576,31.54 -1.247,-1.247 c -0.775,-0.775 -2.032,-0.775 -2.807,0 l -3.582,3.582 2.651,2.651 z"
   id="path12" />
		
			<rect
   x="32.584999"
   y="32.794998"
   transform="matrix(0.7071,0.7071,-0.7071,0.7071,39.0892,-12.3555)"
   style="fill:#f29c21"
   width="3.7490001"
   height="16.424"
   id="rect14" />
		<polygon
   style="fill:#d6c4b1"
   points="25.331,52.786 25.198,53.274 32.976,51.153 32.984,51.145 29.977,48.139 "
   id="polygon16" />
		<path
   style="fill:#a34740"
   d="m 44.597,39.532 3.582,-3.582 c 0.775,-0.775 0.775,-2.032 0,-2.807 l -1.602,-1.602 -4.985,4.985 z"
   id="path18" />
		
			<rect
   x="35.161999"
   y="35.623001"
   transform="matrix(-0.7071,-0.7071,0.7071,-0.7071,32.6566,101.1979)"
   style="fill:#e18c25"
   width="4.2509999"
   height="16.424"
   id="rect20" />
		<path
   style="fill:#5e5e5e"
   d="m 24.491,54.981 c -0.256,0 -0.512,-0.098 -0.707,-0.293 -0.391,-0.391 -0.391,-1.023 0,-1.414 l 2.207,-2.207 c 0.391,-0.391 1.023,-0.391 1.414,0 0.391,0.391 0.391,1.023 0,1.414 l -2.207,2.207 c -0.196,0.196 -0.451,0.293 -0.707,0.293 z"
   id="path22" />
	</g>
</g>














<g
   id="g56"
   style="display:inline"
   sodipodi:insensitive="true"
   inkscape:groupmode="layer">
</g>
</svg>
