<?xml version="1.0" encoding="UTF-8" standalone="no"?>
<!-- Generator: Adobe Illustrator 18.0.0, SVG Export Plug-In . SVG Version: 6.00 Build 0)  -->

<svg
   version="1.1"
   id="Capa_1"
   x="0px"
   y="0px"
   viewBox="0 0 56 56"
   style="enable-background:new 0 0 56 56;"
   xml:space="preserve"
   sodipodi:docname="embargo.svg"
   inkscape:version="1.1.1 (3bf5ae0d25, 2021-09-20)"
   inkscape:export-xdpi="109.71429"
   inkscape:export-ydpi="109.71429"
   xmlns:inkscape="http://www.inkscape.org/namespaces/inkscape"
   xmlns:sodipodi="http://sodipodi.sourceforge.net/DTD/sodipodi-0.dtd"
   xmlns="http://www.w3.org/2000/svg"
   xmlns:svg="http://www.w3.org/2000/svg"><defs
   id="defs51"><linearGradient
   id="linearGradient6999"
   inkscape:swatch="solid"><stop
     style="stop-color:#ffffff;stop-opacity:1;"
     offset="0"
     id="stop6997" /></linearGradient><linearGradient
   id="linearGradient6974"
   inkscape:swatch="solid"><stop
     style="stop-color:#0000ff;stop-opacity:1;"
     offset="0"
     id="stop6972" /></linearGradient>


</defs><sodipodi:namedview
   id="namedview49"
   pagecolor="#ffffff"
   bordercolor="#666666"
   borderopacity="1.0"
   inkscape:pageshadow="2"
   inkscape:pageopacity="0.0"
   inkscape:pagecheckerboard="0"
   showgrid="false"
   inkscape:zoom="5"
   inkscape:cx="31.4"
   inkscape:cy="51.1"
   inkscape:window-width="1366"
   inkscape:window-height="745"
   inkscape:window-x="-8"
   inkscape:window-y="-8"
   inkscape:window-maximized="1"
   inkscape:current-layer="Capa_1" />
<g
   id="g8"
   transform="matrix(1.0407407,0,0,1.0407407,-1.2407407,0.4)">
		<path
   style="fill:#e7d4b1"
   d="M 44.472,0 H 31.294 L 6.848,24.367 30.582,48.152 55,23.814 v -13.31 z m -1.457,14.87 c -1.621,0 -2.935,-1.314 -2.935,-2.935 0,-1.621 1.314,-2.935 2.935,-2.935 1.621,0 2.935,1.314 2.935,2.935 0,1.621 -1.314,2.935 -2.935,2.935 z"
   id="path2" />
		<polygon
   style="fill:#d3c2a4"
   points="30.637,48.113 6.877,24.354 1,30.215 24.734,54 "
   id="polygon4" />
		<path
   style="fill:#cbb292"
   d="m 43.015,9 c 1.621,0 2.935,1.314 2.935,2.935 0,1.621 -1.314,2.935 -2.935,2.935 -1.621,0 -2.935,-1.314 -2.935,-2.935 C 40.08,10.314 41.394,9 43.015,9 m 0,-4 c -3.824,0 -6.935,3.111 -6.935,6.935 0,3.824 3.111,6.935 6.935,6.935 3.824,0 6.935,-3.111 6.935,-6.935 C 49.95,8.111 46.839,5 43.015,5 Z"
   id="path6" />
	</g><g
   id="g14">
		<circle
   style="fill:#ed3961;fill-opacity:1"
   cx="38"
   cy="44"
   r="12"
   id="circle10" />

	</g><rect
   style="opacity:0.9648;fill:#ffffff;fill-opacity:1;stroke-width:0.888652;paint-order:stroke fill markers"
   id="rect7291"
   width="17.9"
   height="3.7949781"
   x="29.049999"
   y="41.849998"
   ry="1.0724938" />















</svg>
