<?xml version="1.0" encoding="UTF-8" standalone="no"?>
<!-- Generator: Adobe Illustrator 16.0.0, SVG Export Plug-In . SVG Version: 6.00 Build 0)  -->

<svg
   version="1.1"
   id="Capa_1"
   x="0px"
   y="0px"
   width="90.766px"
   height="90.766px"
   viewBox="0 0 90.766 90.766"
   style="enable-background:new 0 0 90.766 90.766;"
   xml:space="preserve"
   sodipodi:docname="pull-out.svg"
   inkscape:version="1.1.1 (3bf5ae0d25, 2021-09-20)"
   inkscape:export-filename="C:\Users\zwero\Downloads\pull-out.png"
   inkscape:export-xdpi="67.690544"
   inkscape:export-ydpi="67.690544"
   xmlns:inkscape="http://www.inkscape.org/namespaces/inkscape"
   xmlns:sodipodi="http://sodipodi.sourceforge.net/DTD/sodipodi-0.dtd"
   xmlns="http://www.w3.org/2000/svg"
   xmlns:svg="http://www.w3.org/2000/svg"><defs
   id="defs39" /><sodipodi:namedview
   id="namedview37"
   pagecolor="#ffffff"
   bordercolor="#666666"
   borderopacity="1.0"
   inkscape:pageshadow="2"
   inkscape:pageopacity="0.0"
   inkscape:pagecheckerboard="0"
   showgrid="false"
   inkscape:zoom="2.0409402"
   inkscape:cx="-11.269316"
   inkscape:cy="10.04439"
   inkscape:window-width="1350"
   inkscape:window-height="729"
   inkscape:window-x="0"
   inkscape:window-y="0"
   inkscape:window-maximized="0"
   inkscape:current-layer="Capa_1" />















<g
   id="g4"
   transform="matrix(1.0523213,0,0,1.0523213,-3.5049411,-3.2912196)">
	<g
   id="g12396"
   inkscape:export-filename="C:\Users\zwero\Downloads\shopping-cart-with-down-arrow-e-commerce-symbol-svgrepo-com.png"
   inkscape:export-xdpi="67.690544"
   inkscape:export-ydpi="67.690544" />
<path
   d="m 56.999997,21.935026 h -37.26334 l -1.395,-6.957969 -13.928,-2.324 -1.246,7.469 8.785,1.463 9.32,44.965 -4.092,13.01 h 5.658 c -0.32,0.773 -0.5,1.627 -0.5,2.523 0,3.486 2.656,6.312 5.934,6.312 3.278,0 5.932,-2.826 5.932,-6.312 0,-0.896 -0.18,-1.75 -0.496,-2.523 h 31.289 c -0.318,0.773 -0.496,1.627 -0.496,2.523 0,3.486 2.654,6.312 5.932,6.312 3.275,0 5.932,-2.826 5.932,-6.312 0,-0.896 -0.18,-1.75 -0.498,-2.523 h 5.017 v -7.57 h -53.385 l 0.766,-2.43 32.73434,-12.625031 -15.735745,-24.693519 11.702589,-0.92996"
   id="path14043"
   sodipodi:nodetypes="cccccccccsssccssscccccccc" /><g
   id="g5599"><path
     id="path5360"
     style="fill:#007800;fill-opacity:1"
     d="M 61.000468,33.281227 V 9.1132274 h 11.258 V 33.281227 h 12.064 L 66.629,55.643228 48.937468,33.281227 Z m 1.239,26.274001 c 1.043,1.317 2.707532,2.088 4.389532,2.088 1.682,0 3.714968,-1.4295 4.236468,-2.088 0.5215,-0.6585 17.695,-22.361001 17.695,-22.361001 1.309,-1.654 1.555,-3.91 0.637,-5.809 -0.918,-1.899 -2.842,-3.104 -4.951,-3.104 h -6.564 V 9.6132274 c 0,-3.037 -2.463,-5.5 -5.5,-5.5 h -11.259 c -3.037,0 -5.5,2.463 -5.5,5.5 l 0.151,18.6679996 h -6.561 c -1.264273,0 -4.211589,0.728606 -5.226,3.104 -1.014411,2.375394 -0.345819,4.319078 0.637,5.809"
     sodipodi:nodetypes="ccccccccczzcssccssccssc" /></g></g>
</svg>
