<?xml version="1.0" encoding="UTF-8" standalone="no"?>
<!-- Generator: Adobe Illustrator 18.0.0, SVG Export Plug-In . SVG Version: 6.00 Build 0)  -->

<svg
   version="1.1"
   id="Capa_1"
   x="0px"
   y="0px"
   viewBox="0 0 55.981 55.981"
   style="enable-background:new 0 0 55.981 55.981;"
   xml:space="preserve"
   sodipodi:docname="see-prices.svg"
   inkscape:export-filename="C:\Users\zwero\Downloads\see-prices.png"
   inkscape:export-xdpi="109.75153"
   inkscape:export-ydpi="109.75153"
   inkscape:version="1.1.1 (3bf5ae0d25, 2021-09-20)"
   xmlns:inkscape="http://www.inkscape.org/namespaces/inkscape"
   xmlns:sodipodi="http://sodipodi.sourceforge.net/DTD/sodipodi-0.dtd"
   xmlns="http://www.w3.org/2000/svg"
   xmlns:svg="http://www.w3.org/2000/svg"><defs
   id="defs53">
	
	
</defs><sodipodi:namedview
   id="namedview51"
   pagecolor="#ffffff"
   bordercolor="#666666"
   borderopacity="1.0"
   inkscape:pageshadow="2"
   inkscape:pageopacity="0.0"
   inkscape:pagecheckerboard="0"
   showgrid="false"
   inkscape:zoom="5.001697"
   inkscape:cx="28.590296"
   inkscape:cy="9.2968446"
   inkscape:window-width="1366"
   inkscape:window-height="745"
   inkscape:window-x="-8"
   inkscape:window-y="-8"
   inkscape:window-maximized="1"
   inkscape:current-layer="Capa_1" />
<g
   id="g8"
   transform="matrix(1.0351617,0,0,1.0108466,-0.63464168,0)">
		<path
   style="fill:#e7d4b1"
   d="M 44.462,0 H 31.285 L 6.838,24.367 30.572,48.152 54.99,23.814 v -13.31 z m -1.456,14.87 c -1.621,0 -2.935,-1.314 -2.935,-2.935 0,-1.621 1.314,-2.935 2.935,-2.935 1.621,0 2.935,1.314 2.935,2.935 0,1.621 -1.314,2.935 -2.935,2.935 z"
   id="path2" />
		<polygon
   style="fill:#d3c2a4"
   points="0.991,30.215 24.725,54 30.627,48.113 6.867,24.354 "
   id="polygon4" />
		<path
   style="fill:#cbb292"
   d="m 43.006,9 c 1.621,0 2.935,1.314 2.935,2.935 0,1.621 -1.314,2.935 -2.935,2.935 -1.621,0 -2.935,-1.314 -2.935,-2.935 C 40.071,10.314 41.385,9 43.006,9 m 0,-4 c -3.824,0 -6.935,3.111 -6.935,6.935 0,3.824 3.111,6.935 6.935,6.935 3.824,0 6.935,-3.111 6.935,-6.935 C 49.941,8.111 46.83,5 43.006,5 Z"
   id="path6" />
	</g><g
   id="g16"
   transform="matrix(1.0240542,0,0,1,-0.02383767,0)">
		<circle
   style="fill:#d0e8f9"
   cx="33.768002"
   cy="40.796001"
   r="9.7959995"
   id="circle10" />
		<path
   style="fill:#eaf6fd"
   d="M 37.321,31.674 24.647,44.348 c 0.706,1.81 1.93,3.357 3.495,4.459 L 41.78,35.17 c -1.102,-1.566 -2.649,-2.79 -4.459,-3.496 z"
   id="path12" />
		<path
   style="fill:#b1d3ef"
   d="m 47.713,54.291 -5.97,-6.244 c 1.746,-1.919 2.82,-4.458 2.82,-7.251 C 44.564,34.843 39.721,30 33.768,30 c -5.953,0 -10.796,4.843 -10.796,10.796 0,5.953 4.843,10.796 10.796,10.796 2.442,0 4.689,-0.824 6.499,-2.196 l 6.001,6.276 c 0.196,0.206 0.459,0.309 0.723,0.309 0.249,0 0.497,-0.092 0.691,-0.277 0.399,-0.381 0.413,-1.015 0.031,-1.413 z M 24.972,40.796 c 0,-4.85 3.946,-8.796 8.796,-8.796 4.85,0 8.796,3.946 8.796,8.796 0,4.85 -3.946,8.796 -8.796,8.796 -4.85,0 -8.796,-3.946 -8.796,-8.796 z"
   id="path14" />
	</g>















</svg>
