<?xml version="1.0" encoding="UTF-8" standalone="no"?>
<!-- Generator: Adobe Illustrator 16.0.0, SVG Export Plug-In . SVG Version: 6.00 Build 0)  -->

<svg
   version="1.1"
   id="Capa_1"
   x="0px"
   y="0px"
   width="90.766px"
   height="90.766px"
   viewBox="0 0 90.766 90.766"
   style="enable-background:new 0 0 90.766 90.766;"
   xml:space="preserve"
   sodipodi:docname="universal-transfer.svg"
   inkscape:version="1.1.2 (0a00cf5339, 2022-02-04, custom)"
   inkscape:export-xdpi="67.690544"
   inkscape:export-ydpi="67.690544"
   xmlns:inkscape="http://www.inkscape.org/namespaces/inkscape"
   xmlns:sodipodi="http://sodipodi.sourceforge.net/DTD/sodipodi-0.dtd"
   xmlns="http://www.w3.org/2000/svg"
   xmlns:svg="http://www.w3.org/2000/svg"><defs
   id="defs39" /><sodipodi:namedview
   id="namedview37"
   pagecolor="#ffffff"
   bordercolor="#666666"
   borderopacity="1.0"
   inkscape:pageshadow="2"
   inkscape:pageopacity="0.0"
   inkscape:pagecheckerboard="0"
   showgrid="false"
   inkscape:zoom="2.8863254"
   inkscape:cx="39.496586"
   inkscape:cy="37.071357"
   inkscape:window-width="1350"
   inkscape:window-height="729"
   inkscape:window-x="0"
   inkscape:window-y="0"
   inkscape:window-maximized="0"
   inkscape:current-layer="g1026" />















<g
   id="g4"><g
   id="g1026"
   transform="matrix(1.0560234,0,0,1.0560234,-3.6769304,-3.4624571)"><path
     d="m 54.999997,21.935026 h -35.26334 l -1.395,-6.957969 -13.928,-2.324 -1.246,7.469 8.785,1.463 9.32,44.965 -4.092,13.01 h 5.658 c -0.32,0.773 -0.5,1.627 -0.5,2.523 0,3.486 2.656,6.312 5.934,6.312 3.278,0 5.932,-2.826 5.932,-6.312 0,-0.896 -0.18,-1.75 -0.496,-2.523 h 31.289 c -0.318,0.773 -0.496,1.627 -0.496,2.523 0,3.486 2.654,6.312 5.932,6.312 3.275,0 5.932,-2.826 5.932,-6.312 0,-0.896 -0.18,-1.75 -0.498,-2.523 h 5.017 v -7.57 h -53.385 l 0.766,-2.43 32.73434,-12.625031 -2.396985,-21.575367 -9.665544,-2.884431"
     id="path14043"
     sodipodi:nodetypes="cccccccccsssccssscccccccc"
     style="display:inline" /><g
     id="g5599"><path
       id="path5360"
       style="fill:#780000;fill-opacity:1"
       d="m 61.000468,32.475228 v 24.168 h 11.258 v -24.168 h 12.064 L 66.629,10.113227 48.937468,32.475228 Z m 1.239,-26.2740006 c 1.043,-1.317 2.707532,-2.088 4.389532,-2.088 1.682,0 3.714968,1.4295 4.236468,2.088 0.5215,0.6585 17.695,22.3610006 17.695,22.3610006 1.309,1.654 1.555,3.91 0.637,5.809 -0.918,1.899 -2.842,3.104 -4.951,3.104 h -6.564 v 18.668 c 0,3.037 -2.463,5.5 -5.5,5.5 h -11.259 c -3.037,0 -5.5,-2.463 -5.5,-5.5 l 0.151,-18.668 h -6.561 c -1.264273,0 -4.211589,-0.728606 -5.226,-3.104 -1.014411,-2.375394 -0.345819,-4.319078 0.637,-5.809"
       sodipodi:nodetypes="ccccccccczzcssccssccssc" /></g><text
     xml:space="preserve"
     style="font-style:normal;font-weight:normal;font-size:73.8257px;line-height:1.25;font-family:sans-serif;fill:#780000;fill-opacity:1;stroke:#000000;stroke-width:0.1;stroke-miterlimit:4;stroke-dasharray:none;stroke-opacity:1"
     x="16.753923"
     y="81.578194"
     id="text4611"><tspan
       sodipodi:role="line"
       id="tspan4609"
       x="16.753923"
       y="81.578194"
       style="stroke:#000000;stroke-width:0.1;stroke-miterlimit:4;stroke-dasharray:none;stroke-opacity:1">*</tspan></text></g>

</g>
</svg>
